<?xml version="1.0" standalone="no"?>
<!DOCTYPE svg PUBLIC "-//W3C//DTD SVG 20010904//EN"
 "http://www.w3.org/TR/2001/REC-SVG-20010904/DTD/svg10.dtd">
<svg version="1.0" xmlns="http://www.w3.org/2000/svg"
 width="2000.000000pt" height="2000.000000pt" viewBox="0 0 2000.000000 2000.000000"
 preserveAspectRatio="xMidYMid meet">

<g transform="translate(0.000000,2000.000000) scale(0.100000,-0.100000)"
fill="#000000" stroke="none">
<path d="M0 10000 l0 -10000 10000 0 10000 0 0 10000 0 10000 -10000 0 -10000
0 0 -10000z m9979 3575 c8 -22 18 -69 22 -105 13 -94 33 -193 43 -209 13 -19
54 -8 117 34 57 37 85 41 102 13 13 -19 -13 -75 -50 -110 -13 -12 -23 -25 -23
-29 0 -5 -13 -31 -30 -58 -16 -28 -34 -70 -41 -93 -9 -33 -11 -368 -10 -1398
2 -745 5 -1358 7 -1362 23 -37 278 221 671 678 56 66 114 133 128 149 15 17
45 53 67 80 57 71 211 239 355 385 85 87 124 135 129 156 6 30 -7 61 -178 424
-109 230 -242 496 -289 576 -166 285 -231 454 -175 454 19 0 103 -97 215 -250
50 -69 143 -192 206 -275 64 -82 148 -193 187 -245 39 -52 94 -122 122 -155
28 -33 69 -82 91 -110 45 -58 186 -215 261 -290 69 -70 84 -94 84 -134 0 -50
-27 -85 -152 -201 -62 -58 -183 -173 -268 -256 -85 -82 -191 -184 -235 -225
-44 -41 -98 -92 -120 -114 -58 -58 -406 -389 -415 -395 -16 -11 -309 -290
-383 -365 -94 -96 -111 -124 -97 -160 5 -14 137 -153 292 -309 156 -156 330
-331 388 -389 58 -58 236 -236 395 -395 378 -376 587 -590 602 -616 19 -32 15
-87 -7 -124 -12 -19 -160 -174 -329 -345 -351 -355 -449 -454 -913 -929 -183
-187 -404 -413 -491 -502 -87 -88 -173 -176 -190 -194 -53 -55 -117 -68 -169
-34 -33 22 -295 269 -469 442 -69 69 -240 235 -380 370 -431 416 -459 443
-464 459 -3 9 -32 36 -64 61 -31 25 -83 74 -115 110 -49 55 -146 148 -272 261
-72 66 -306 313 -316 334 -26 58 -9 82 204 287 295 283 446 428 587 563 69 66
191 183 271 261 80 77 178 172 219 210 41 38 109 103 150 145 42 42 115 108
163 147 113 94 128 114 128 170 0 44 -3 49 -72 117 -40 39 -86 81 -103 93 -16
13 -91 82 -166 155 -125 122 -362 349 -618 593 -57 54 -139 133 -181 174 -95
92 -410 393 -419 400 -3 3 -39 40 -78 82 -110 115 -105 133 82 333 55 58 106
117 113 131 7 13 16 24 21 24 4 0 29 26 54 58 26 31 68 82 94 114 176 208 365
447 580 733 142 188 210 265 228 258 23 -8 18 -31 -19 -98 -59 -108 -203 -391
-232 -457 -15 -34 -38 -79 -49 -98 -12 -19 -27 -51 -35 -70 -35 -90 -314 -642
-364 -720 -33 -52 -36 -65 -18 -92 10 -14 125 -136 257 -270 132 -134 269
-277 305 -317 36 -41 94 -106 130 -145 36 -40 106 -116 155 -171 166 -184 521
-545 536 -545 30 0 31 51 33 1339 3 1353 2 1362 -40 1442 -115 218 -127 265
-68 263 18 -1 52 -17 81 -38 28 -20 56 -36 62 -36 15 0 26 29 46 125 9 44 21
94 25 110 5 17 11 49 14 72 14 100 58 125 85 48z"/>
<path d="M10133 9587 c-9 -14 -12 -2281 -3 -2572 4 -161 7 -190 21 -193 20 -4
253 242 528 557 95 109 199 227 221 251 8 9 49 54 90 100 41 47 82 92 90 100
8 9 47 52 86 96 40 43 113 122 163 174 93 96 108 122 96 159 -3 12 -79 94
-167 184 -155 156 -375 392 -486 521 -155 180 -244 275 -408 441 -173 174
-215 207 -231 182z"/>
<path d="M9700 9544 c-43 -32 -362 -350 -485 -484 -33 -36 -103 -112 -155
-169 -52 -57 -218 -228 -368 -380 -151 -152 -278 -286 -282 -298 -8 -19 14
-45 188 -220 198 -200 335 -341 556 -573 325 -341 579 -590 601 -590 8 0 16 8
19 18 6 24 7 2673 0 2699 -9 34 -26 33 -74 -3z"/>
</g>
</svg>
