<svg xmlns="http://www.w3.org/2000/svg" width="500" height="500" viewBox="0 0 500 500">
<g>
<path d="M 275.19 404.23 C262.37,418.93 251.47,431.21 250.97,431.52 C250.47,431.83 249.03,430.84 247.78,429.32 C246.53,427.81 243.47,424.53 241.00,422.03 C238.52,419.54 235.14,415.71 233.50,413.51 C231.85,411.32 229.11,408.17 227.41,406.51 C225.70,404.86 222.29,401.02 219.83,398.00 C217.36,394.98 213.62,390.70 211.50,388.50 C209.39,386.30 205.88,382.25 203.71,379.50 C199.51,374.18 189.78,363.07 184.00,357.00 C178.66,351.40 167.22,338.55 164.19,334.76 C162.71,332.91 159.52,329.28 157.09,326.70 C152.27,321.57 148.73,316.29 149.20,314.92 C149.54,313.93 171.76,290.76 201.24,260.66 L 202.16 259.71 C220.78,240.70 224.02,237.40 223.42,235.07 C223.29,234.54 222.96,234.06 222.56,233.46 C221.68,232.11 220.62,231.00 220.22,231.00 C219.81,231.00 213.18,224.15 205.49,215.78 C197.79,207.41 188.57,197.58 185.00,193.94 C166.31,174.94 150.40,157.70 149.59,155.59 C148.62,153.04 151.76,149.42 177.50,123.40 C183.00,117.84 191.32,109.41 196.00,104.66 C200.68,99.91 204.65,96.47 204.83,97.01 C205.02,97.55 200.29,106.11 194.33,116.02 C188.37,125.94 183.05,134.83 182.50,135.79 C181.95,136.74 179.31,141.29 176.64,145.90 L 171.79 154.28 L 205.60 188.10 C228.19,210.69 239.68,221.53 240.20,220.72 C241.23,219.09 241.14,111.66 240.09,106.27 C239.59,103.67 237.29,99.32 234.14,95.00 C231.31,91.13 229.00,87.55 229.00,87.05 C229.00,86.16 238.87,86.54 239.80,87.46 C240.05,87.72 241.10,87.48 242.13,86.93 C243.32,86.29 244.94,82.74 246.67,76.97 C249.33,68.09 250.52,66.36 251.64,69.75 C251.96,70.71 252.84,72.92 253.61,74.65 C254.37,76.38 255.00,78.29 255.00,78.88 C255.00,79.47 255.74,81.80 256.64,84.05 C258.11,87.74 258.54,88.08 260.89,87.48 C262.32,87.11 265.42,86.64 267.76,86.43 L 272.02 86.06 L 270.36 89.28 C269.45,91.05 266.98,94.97 264.87,98.00 L 261.03 103.50 L 260.51 162.25 C260.15,202.39 260.31,221.00 261.01,221.00 C261.58,221.00 276.89,206.22 295.02,188.16 C316.61,166.66 328.00,154.61 328.00,153.29 C328.00,152.18 327.10,150.13 326.00,148.73 C324.90,147.33 324.00,145.90 324.00,145.56 C324.00,144.86 310.13,121.38 302.99,110.00 C300.40,105.88 297.52,101.01 296.58,99.18 C294.94,95.99 294.95,95.90 296.72,96.85 C297.74,97.39 302.86,102.26 308.11,107.67 C335.12,135.49 352.00,153.42 352.00,154.31 C352.00,155.63 348.79,159.11 304.06,206.31 C290.61,220.50 279.01,232.97 278.27,234.03 C276.25,236.92 277.76,238.77 303.08,264.50 C342.09,304.14 351.49,313.95 351.80,315.38 C352.06,316.57 317.12,357.62 303.18,372.50 C300.61,375.25 288.01,389.53 275.19,404.23 ZM 208.08 355.47 C230.56,383.58 238.52,392.88 239.37,392.03 C240.18,391.22 240.53,373.48 240.62,328.20 C240.74,263.00 240.39,251.50 238.27,251.50 C237.34,251.50 187.73,305.88 179.22,316.22 C178.12,317.56 182.27,323.20 208.08,355.47 ZM 261.05 390.33 C261.02,391.37 261.54,391.99 262.25,391.75 C263.56,391.32 271.77,381.79 279.79,371.40 C286.75,362.39 304.55,340.19 309.07,334.88 C311.24,332.34 314.18,328.51 315.61,326.38 C317.04,324.25 319.10,321.53 320.19,320.34 C322.59,317.74 321.96,316.25 316.08,310.55 C313.84,308.37 312.00,306.11 312.00,305.52 C312.00,304.93 310.76,303.33 309.25,301.96 C307.74,300.59 303.12,295.68 299.00,291.05 C272.66,261.47 262.98,251.00 261.96,251.00 C260.27,251.00 260.10,259.75 260.59,322.50 C260.87,358.80 261.07,389.33 261.05,390.33 Z" fill="rgb(2,4,2)"/>
<path d="M 260.92 115.47 L 260.74 158.79 C260.53,207.01 260.69,214.19 262.00,215.02 C264.32,216.49 264.58,216.35 270.72,210.50 C273.90,207.48 276.92,205.00 277.45,205.00 C277.68,205.00 278.63,204.24 280.11,202.90 C269.18,213.61 261.42,221.00 261.01,221.00 C260.31,221.00 260.15,202.39 260.51,162.25 ZM 175.96 158.45 L 197.14 179.42 C232.08,214.01 236.72,218.22 239.07,217.48 C239.87,217.22 240.34,216.80 240.61,212.51 C240.50,217.42 240.36,220.45 240.20,220.72 C239.68,221.53 228.19,210.69 205.60,188.10 ZM 240.62 121.02 C240.46,115.71 240.25,113.00 240.00,113.00 C239.45,113.00 239.00,111.13 239.00,108.84 C239.00,105.92 238.24,103.69 236.43,101.31 C235.01,99.46 234.05,97.39 234.28,96.72 C234.52,96.05 233.42,93.86 231.85,91.86 C230.28,89.85 229.00,87.75 229.00,87.18 C229.00,87.16 229.00,87.14 229.01,87.12 C229.18,87.83 231.42,91.28 234.14,95.00 C237.29,99.32 239.59,103.67 240.09,106.27 C240.31,107.39 240.49,112.93 240.62,121.02 ZM 307.57 175.56 C318.33,164.44 327.86,154.20 328.00,153.21 C328.00,153.24 328.00,153.26 328.00,153.29 C328.00,154.33 321.00,161.95 307.57,175.56 ZM 232.79 86.55 C235.66,86.53 239.20,86.87 239.80,87.46 C239.26,86.92 235.68,86.57 232.79,86.55 Z" fill="rgb(218,240,63)"/>
<path d="M 0.00 250.00 L 0.00 0.00 L 250.00 0.00 L 500.00 0.00 L 500.00 250.00 L 500.00 500.00 L 250.00 500.00 L 0.00 500.00 L 0.00 250.00 ZM 275.19 404.23 C288.01,389.53 300.61,375.25 303.18,372.50 C317.12,357.62 352.06,316.57 351.80,315.38 C351.49,313.95 342.09,304.14 303.08,264.50 C277.76,238.77 276.25,236.92 278.27,234.03 C279.01,232.97 290.61,220.50 304.06,206.31 C348.79,159.11 352.00,155.63 352.00,154.31 C352.00,153.42 335.12,135.49 308.11,107.67 C302.86,102.26 297.74,97.39 296.72,96.85 C294.95,95.90 294.94,95.99 296.58,99.18 C297.52,101.01 300.40,105.88 302.99,110.00 C310.13,121.38 324.00,144.86 324.00,145.56 C324.00,145.90 324.90,147.33 326.00,148.73 C327.10,150.13 328.00,152.13 328.00,153.19 C328.00,155.13 279.34,205.00 277.45,205.00 C276.92,205.00 273.90,207.48 270.72,210.50 C264.58,216.35 264.32,216.49 262.00,215.02 C260.69,214.19 260.53,207.01 260.74,158.79 L 260.97 103.50 L 264.84 98.00 C266.96,94.97 269.45,91.05 270.36,89.28 L 272.02 86.06 L 267.76 86.43 C265.42,86.64 262.32,87.11 260.89,87.48 C258.54,88.08 258.11,87.74 256.64,84.05 C255.74,81.80 255.00,79.47 255.00,78.88 C255.00,78.29 254.37,76.38 253.61,74.65 C252.84,72.92 251.96,70.71 251.64,69.75 C250.52,66.36 249.33,68.09 246.67,76.97 C244.94,82.74 243.32,86.29 242.13,86.93 C241.10,87.48 240.05,87.72 239.80,87.46 C238.77,86.44 229.00,86.17 229.00,87.18 C229.00,87.75 230.28,89.85 231.85,91.86 C233.42,93.86 234.52,96.05 234.28,96.72 C234.05,97.39 235.01,99.46 236.43,101.31 C238.24,103.69 239.00,105.92 239.00,108.84 C239.00,111.13 239.45,113.00 240.00,113.00 C240.65,113.00 241.00,130.98 241.00,164.93 C241.00,215.31 240.94,216.88 239.07,217.48 C236.72,218.22 232.08,214.01 197.14,179.42 L 171.77 154.30 L 176.64 145.91 C179.31,141.30 181.95,136.74 182.50,135.79 C183.05,134.83 188.37,125.94 194.33,116.02 C200.29,106.11 205.02,97.55 204.83,97.01 C204.65,96.47 200.68,99.91 196.00,104.66 C191.32,109.41 183.00,117.84 177.50,123.40 C151.76,149.42 148.62,153.04 149.59,155.59 C150.40,157.70 166.31,174.94 185.00,193.94 C188.57,197.58 197.79,207.41 205.49,215.78 C213.18,224.15 219.81,231.00 220.22,231.00 C220.62,231.00 221.68,232.11 222.56,233.46 C224.72,236.75 225.01,236.38 201.24,260.66 C171.76,290.76 149.54,313.93 149.20,314.92 C148.73,316.29 152.27,321.57 157.09,326.70 C159.52,329.28 162.71,332.91 164.19,334.76 C167.22,338.55 178.66,351.40 184.00,357.00 C189.78,363.07 199.51,374.18 203.71,379.50 C205.88,382.25 209.39,386.30 211.50,388.50 C213.62,390.70 217.36,394.98 219.83,398.00 C222.29,401.02 225.70,404.86 227.41,406.51 C229.11,408.17 231.85,411.32 233.50,413.51 C235.14,415.71 238.52,419.54 241.00,422.03 C243.47,424.53 246.53,427.81 247.78,429.32 C249.03,430.84 250.47,431.83 250.97,431.52 C251.47,431.21 262.37,418.93 275.19,404.23 ZM 208.08 355.47 C182.27,323.20 178.12,317.56 179.22,316.22 C187.73,305.88 237.34,251.50 238.27,251.50 C240.39,251.50 240.74,263.00 240.62,328.20 C240.53,373.48 240.18,391.22 239.37,392.03 C238.52,392.88 230.56,383.58 208.08,355.47 ZM 261.05 390.33 C261.07,389.33 260.87,358.80 260.59,322.50 C260.10,259.75 260.27,251.00 261.96,251.00 C262.98,251.00 272.66,261.47 299.00,291.05 C303.12,295.68 307.74,300.59 309.25,301.96 C310.76,303.33 312.00,304.93 312.00,305.52 C312.00,306.11 313.84,308.37 316.08,310.55 C321.96,316.25 322.59,317.74 320.19,320.34 C319.10,321.53 317.04,324.25 315.61,326.38 C314.18,328.51 311.24,332.34 309.07,334.88 C304.55,340.19 286.75,362.39 279.79,371.40 C271.77,381.79 263.56,391.32 262.25,391.75 C261.54,391.99 261.02,391.37 261.05,390.33 Z" fill="rgb(223,253,26)"/>
</g>
</svg>