<?xml version="1.0" standalone="no"?>
<!DOCTYPE svg PUBLIC "-//W3C//DTD SVG 20010904//EN"
 "http://www.w3.org/TR/2001/REC-SVG-20010904/DTD/svg10.dtd">
<svg version="1.0" xmlns="http://www.w3.org/2000/svg"
 width="2000.000000pt" height="2000.000000pt" viewBox="0 0 2000.000000 2000.000000"
 preserveAspectRatio="xMidYMid meet">

<g transform="translate(0.000000,2000.000000) scale(0.100000,-0.100000)"
fill="#000000" stroke="none">
<path d="M10296 15662 c-9 -15 -36 -179 -52 -312 -34 -299 -61 -459 -78 -466
-15 -6 -251 150 -316 210 -29 25 -56 43 -61 40 -17 -10 -9 -46 21 -91 17 -24
30 -46 30 -49 0 -2 29 -47 65 -99 36 -52 65 -96 65 -99 0 -3 25 -43 55 -90
l55 -85 -6 -1261 c-8 -1311 -7 -1290 -45 -1290 -12 0 16 -26 -452 433 -860
844 -860 844 -852 869 4 13 13 43 20 68 7 25 26 81 43 125 16 44 46 130 66
190 20 61 41 119 46 130 10 22 136 392 150 440 5 17 38 116 74 220 36 105 63
197 60 205 -5 13 -7 13 -17 -1 -7 -9 -28 -36 -47 -59 -19 -24 -64 -80 -100
-125 -52 -66 -242 -301 -281 -349 -14 -17 -111 -139 -144 -181 -16 -21 -35
-43 -40 -49 -6 -6 -26 -31 -45 -56 -31 -40 -204 -255 -353 -439 -97 -121 -157
-204 -157 -220 0 -9 118 -133 263 -276 707 -699 1498 -1478 1545 -1523 28 -27
52 -57 52 -67 0 -15 -261 -284 -718 -738 -281 -279 -1214 -1213 -1239 -1241
-14 -14 -23 -36 -23 -57 0 -29 26 -58 279 -308 669 -660 1195 -1177 1560
-1531 144 -140 322 -313 394 -384 73 -70 142 -132 155 -137 63 -24 89 -10 248
146 182 176 745 726 810 790 45 44 249 244 454 445 577 565 904 892 933 931
33 44 34 71 5 105 -18 21 -960 963 -1338 1338 -379 376 -620 625 -620 642 0
12 87 103 222 234 122 118 435 427 697 686 262 259 578 571 703 693 125 123
230 231 233 242 6 19 -9 44 -103 165 -45 59 -196 248 -230 289 -10 11 -89 110
-176 220 -88 110 -183 227 -210 261 -28 33 -67 80 -86 104 -19 24 -48 60 -65
81 -16 20 -41 52 -55 70 -14 18 -64 81 -111 140 -48 59 -93 115 -100 126 -12
15 -59 48 -59 41 0 -2 14 -41 31 -88 16 -47 66 -191 110 -320 43 -129 104
-307 135 -395 31 -88 67 -194 80 -235 24 -73 67 -195 84 -235 4 -11 16 -44 25
-74 l16 -54 -33 -35 c-68 -72 -1162 -1153 -1241 -1226 -33 -31 -39 -32 -59 -8
-13 15 -16 171 -23 1277 -4 693 -8 1271 -8 1285 0 22 82 147 215 327 21 29 38
59 38 67 0 8 5 18 11 22 6 3 20 27 31 51 15 34 17 48 8 57 -8 8 -14 7 -23 -4
-7 -8 -39 -38 -72 -65 -33 -28 -69 -58 -80 -69 -41 -38 -207 -156 -219 -156
-11 0 -25 83 -46 270 -12 107 -30 245 -41 305 -11 61 -23 132 -27 159 -7 46
-23 68 -36 48z m-241 -6286 c0 -719 -3 -1313 -8 -1319 -4 -8 -70 53 -184 168
-97 99 -393 399 -659 667 l-483 487 407 405 c224 222 520 517 657 654 138 137
255 249 260 247 7 -1 10 -446 10 -1309z m1070 772 c301 -299 595 -591 656
-650 60 -59 109 -111 109 -116 0 -5 -158 -168 -351 -363 -193 -195 -486 -492
-652 -662 -166 -169 -304 -304 -308 -300 -9 10 -20 2618 -12 2627 4 3 8 6 10
6 1 0 248 -244 548 -542z"/>
</g>
</svg>
